SplineFontDB: 3.2
FontName: Shixel
FullName: Shixel
FamilyName: Shixel
Weight: Regular
Copyright: Copyright (c) 2023, howdo
UComments: "2023-7-6: Created with FontForge (http://fontforge.org)"
Version: 001.000
ItalicAngle: 0
UnderlinePosition: -100.267
UnderlineWidth: 49.0667
Ascent: 819
Descent: 205
InvalidEm: 0
LayerCount: 2
Layer: 0 0 "Back" 1
Layer: 1 0 "Fore" 0
XUID: [1021 841 1670940974 1195]
StyleMap: 0x0000
FSType: 0
OS2Version: 0
OS2_WeightWidthSlopeOnly: 0
OS2_UseTypoMetrics: 1
CreationTime: 1688642867
ModificationTime: 1693506920
OS2TypoAscent: 0
OS2TypoAOffset: 1
OS2TypoDescent: 0
OS2TypoDOffset: 1
OS2TypoLinegap: 92
OS2WinAscent: 0
OS2WinAOffset: 1
OS2WinDescent: 0
OS2WinDOffset: 1
HheadAscent: 0
HheadAOffset: 1
HheadDescent: 0
HheadDOffset: 1
MarkAttachClasses: 1
DEI: 91125
Encoding: ISO8859-1
UnicodeInterp: none
NameList: AGL For New Fonts
DisplaySize: -48
AntiAlias: 1
FitToEm: 0
WinInfo: 32 16 4
BeginPrivate: 0
EndPrivate
Grid
-1296 110 m 1024
432 -144 m 1025
336 1236.20019531 m 0
 336 -811.799804688 l 1024
240 1235.20019531 m 0
 240 -812.799804688 l 1024
144 1236.20019531 m 0
 144 -811.799804688 l 1024
-1296 96 m 0
 1776 96 l 1024
-1296 192 m 0
 1776 192 l 1024
-1296 288 m 0
 1776 288 l 1024
-1296 384 m 0
 1776 384 l 1024
-1296 480 m 0
 1776 480 l 1024
432 1235.20019531 m 0
 432 -812.799804688 l 1024
48 1236.22265625 m 0
 48 0 l 1
 48 -811.77734375 l 1024
-1303.16894531 0 m 0
 1768.83105469 0 l 1024
-1303.16894531 576 m 0
 86.400390625 576 l 1
 188.799804688 576 l 1
 1768.83105469 576 l 1024
EndSplineSet
AnchorClass2: "ocher""" 
BeginChars: 256 90

StartChar: exclam
Encoding: 33 33 0
Width: 480
VWidth: 1023
Flags: HW
LayerCount: 2
Fore
SplineSet
288 96 m 1
 288 0 l 1
 192 0 l 1
 192 96 l 1
 288 96 l 1
192 576 m 1
 288 576 l 1
 288 192 l 1
 192 192 l 1
 192 576 l 1
EndSplineSet
Validated: 1
EndChar

StartChar: quotedbl
Encoding: 34 34 1
Width: 480
VWidth: 1023
Flags: HW
LayerCount: 2
Fore
SplineSet
288 576 m 1
 384 576 l 1
 384 384 l 1
 288 384 l 1
 288 576 l 1
96 576 m 1
 192 576 l 1
 192 384 l 1
 96 384 l 1
 96 576 l 1
EndSplineSet
Validated: 1
EndChar

StartChar: numbersign
Encoding: 35 35 2
Width: 480
VWidth: 1023
Flags: HW
LayerCount: 2
Fore
SplineSet
288 288 m 5
 192 288 l 5
 192 192 l 5
 288 192 l 5
 288 288 l 5
192 96 m 5
 192 0 l 5
 96 0 l 5
 96 96 l 5
 47 96 l 5
 47 192 l 5
 96 192 l 5
 96 288 l 5
 47 288 l 5
 47 384 l 5
 96 384 l 5
 96 480 l 5
 192 480 l 5
 192 384 l 5
 288 384 l 5
 288 480 l 5
 384 480 l 5
 384 384 l 5
 431 384 l 5
 431 288 l 5
 384 288 l 5
 384 192 l 5
 431 192 l 5
 431 96 l 5
 384 96 l 5
 384 0 l 5
 288 0 l 5
 288 96 l 5
 192 96 l 5
EndSplineSet
Validated: 1
EndChar

StartChar: E
Encoding: 69 69 3
Width: 480
VWidth: 1023
Flags: W
HStem: 0 96<145 431> 288 96<145 336> 480 96<145 431>
VStem: 47 98<96 288 384 480>
LayerCount: 2
Fore
SplineSet
47 576 m 1
 431 576 l 1
 431 480 l 1
 145 480 l 1
 145 384 l 1
 336 384 l 1
 336 288 l 1
 145 288 l 1
 145 96 l 1
 431 96 l 1
 431 0 l 1
 47 0 l 1
 47 576 l 1
EndSplineSet
Validated: 1
EndChar

StartChar: L
Encoding: 76 76 4
Width: 480
VWidth: 1023
Flags: HW
HStem: 0 96<145 431> 557 19G<47 145>
VStem: 47 96<96 576>
LayerCount: 2
Fore
SplineSet
47 0 m 5
 47 576 l 5
 145 576 l 5
 145 96 l 5
 431 96 l 5
 431 0 l 5
 47 0 l 5
EndSplineSet
Validated: 1
EndChar

StartChar: T
Encoding: 84 84 5
Width: 480
VWidth: 1023
Flags: HW
LayerCount: 2
Fore
SplineSet
47 576 m 1
 431 576 l 1
 431 480 l 1
 288 480 l 1
 288 0 l 1
 192 0 l 1
 192 480 l 1
 47 480 l 1
 47 576 l 1
EndSplineSet
Validated: 1
EndChar

StartChar: I
Encoding: 73 73 6
Width: 480
VWidth: 1023
Flags: HW
LayerCount: 2
Fore
SplineSet
47 0 m 1
 47 96 l 1
 192 96 l 1
 192 480 l 1
 47 480 l 1
 47 576 l 1
 431 576 l 1
 431 480 l 1
 288 480 l 1
 288 96 l 1
 431 96 l 1
 431 0 l 1
 47 0 l 1
EndSplineSet
Validated: 1
EndChar

StartChar: O
Encoding: 79 79 7
Width: 480
VWidth: 1023
Flags: W
HStem: 0 96<144 336> 480 96<144 336>
VStem: 48 96<96 480> 336 96<96 480>
LayerCount: 2
Fore
SplineSet
144 96 m 1
 336 96 l 1
 336 480 l 1
 144 480 l 1
 144 96 l 1
144 0 m 1
 97 0 48 49 48 96 c 1
 48 480 l 1
 48 535 97 576 144 576 c 1
 336 576 l 1
 383 576 432 527 432 480 c 1
 432 96 l 1
 432 49 383 0 336 0 c 1
 144 0 l 1
EndSplineSet
Validated: 1
EndChar

StartChar: Q
Encoding: 81 81 8
Width: 480
VWidth: 1023
Flags: W
HStem: 0 96<144 288> 480 96<144 336>
VStem: 48 96<96 480> 336 96<144 480>
LayerCount: 2
Fore
SplineSet
336 480 m 1
 144 480 l 1
 144 96 l 1
 288 96 l 1
 240 144 l 1
 288 192 l 1
 336 144 l 1
 336 480 l 1
432 96 m 17
 432 79 431 73 422 58 c 1
 480 0 l 1
 432 -48 l 1
 373 11 l 1
 360 5 349 0 336 0 c 1
 144 0 l 1
 97 0 48 49 48 96 c 1
 48 480 l 1
 48 535 97 576 144 576 c 1
 336 576 l 1
 383 576 432 527 432 480 c 9
 432 480 432 246 432 96 c 17
EndSplineSet
Validated: 1
EndChar

StartChar: N
Encoding: 78 78 9
Width: 480
VWidth: 1023
Flags: HW
HStem: 0 21G<47 143 335 431> 557 19G<47 164 335 431>
VStem: 47 96<0 480> 335 96<0 288 384 576>
LayerCount: 2
Fore
SplineSet
47 0 m 5
 47 576 l 5
 145 576 l 5
 337 384 l 5
 337 576 l 5
 431 576 l 5
 431 0 l 5
 337 0 l 5
 337 288 l 5
 145 480 l 5
 145 0 l 5
 47 0 l 5
EndSplineSet
Validated: 1
EndChar

StartChar: Z
Encoding: 90 90 10
Width: 480
VWidth: 1023
Flags: HW
LayerCount: 2
Fore
SplineSet
431 0 m 1
 47 0 l 1
 47 96 l 1
 337 480 l 1
 47 480 l 1
 47 576 l 1
 431 576 l 1
 431 480 l 1
 145 96 l 1
 431 96 l 1
 431 0 l 1
EndSplineSet
Validated: 1
EndChar

StartChar: V
Encoding: 86 86 11
Width: 480
VWidth: 1023
Flags: HW
HStem: 0 21G<160 320> 557 19G<47 147 333 431>
LayerCount: 2
Fore
SplineSet
431 576 m 5
 318 0 l 5
 162 0 l 13
 47 576 l 5
 145 576 l 5
 239 96 l 5
 337 576 l 5
 431 576 l 5
EndSplineSet
Validated: 1
EndChar

StartChar: Y
Encoding: 89 89 12
Width: 480
VWidth: 1023
Flags: HW
HStem: 0 21G<192 288> 557 19G<47 154 326 431>
VStem: 192 96<0 288>
LayerCount: 2
Fore
SplineSet
192 0 m 5
 192 288 l 5
 47 576 l 5
 145 576 l 5
 239 384 l 5
 337 576 l 5
 431 576 l 5
 288 288 l 5
 288 0 l 5
 192 0 l 5
EndSplineSet
Validated: 1
EndChar

StartChar: H
Encoding: 72 72 13
Width: 480
VWidth: 1023
Flags: HW
LayerCount: 2
Fore
SplineSet
48 576 m 1
 144 576 l 1
 144 384 l 1
 336 384 l 1
 336 576 l 1
 432 576 l 1
 432 0 l 1
 336 0 l 1
 336 288 l 1
 144 288 l 1
 144 0 l 1
 48 0 l 5
 48 576 l 1
EndSplineSet
Validated: 1
EndChar

StartChar: X
Encoding: 88 88 14
Width: 480
Flags: W
HStem: 0 21G<48 154 326 432> 556 20G<48 154 326 432>
LayerCount: 2
Fore
SplineSet
240 384 m 1
 336 576 l 1
 432 576 l 1
 288 288 l 1
 432 0 l 1
 336 0 l 1
 240 192 l 1
 144 0 l 1
 48 0 l 1
 192 288 l 1
 48 576 l 1
 144 576 l 1
 240 384 l 1
EndSplineSet
Validated: 1
EndChar

StartChar: F
Encoding: 70 70 15
Width: 480
Flags: W
HStem: 0 21G<48 144> 288 96<144 336> 480 96<144 432>
VStem: 48 96<0 288 384 480>
LayerCount: 2
Fore
SplineSet
48 0 m 1
 48 576 l 1
 432 576 l 1
 432 480 l 1
 144 480 l 1
 144 384 l 1
 336 384 l 1
 336 288 l 1
 144 288 l 1
 144 0 l 1
 48 0 l 1
EndSplineSet
Validated: 1
EndChar

StartChar: M
Encoding: 77 77 16
Width: 480
Flags: W
HStem: 0 21G<48 144 336 432> 556 20G<48 164 316 432>
VStem: 48 96<0 480> 336 96<0 480>
LayerCount: 2
Fore
SplineSet
48 0 m 1
 48 576 l 1
 144 576 l 1
 240 480 l 1
 336 576 l 1
 432 576 l 1
 432 0 l 1
 336 0 l 1
 336 480 l 1
 240 384 l 1
 144 480 l 1
 144 0 l 1
 48 0 l 1
EndSplineSet
Validated: 1
EndChar

StartChar: zero
Encoding: 48 48 17
Width: 480
VWidth: 1023
Flags: W
HStem: 0 96<144 336> 480 96<144 336>
VStem: 48 96<192 480> 336 96<96 384>
LayerCount: 2
Fore
SplineSet
144 192 m 1
 336 480 l 1
 144 480 l 1
 144 192 l 1
144 96 m 1
 336 96 l 1
 336 384 l 1
 144 96 l 1
144 0 m 1
 97 0 48 49 48 96 c 1
 48 480 l 1
 48 535 97 576 144 576 c 1
 336 576 l 1
 383 576 432 527 432 480 c 1
 432 96 l 1
 432 49 383 0 336 0 c 1
 144 0 l 1
EndSplineSet
Validated: 1
EndChar

StartChar: seven
Encoding: 55 55 18
Width: 480
Flags: W
HStem: 0 21G<48 156> 480 96<48 336>
LayerCount: 2
Fore
SplineSet
48 576 m 1
 432 576 l 1
 432 480 l 1
 144 0 l 1
 48 0 l 1
 336 480 l 1
 48 480 l 1
 48 576 l 1
EndSplineSet
Validated: 1
EndChar

StartChar: K
Encoding: 75 75 19
Width: 480
Flags: W
HStem: 0 21G<48 144 342.182 432> 556 20G<48 144 344 432>
VStem: 48 96<0 220 356 576>
LayerCount: 2
Fore
SplineSet
48 0 m 1
 48 576 l 1
 144 576 l 1
 144 356 l 1
 364 576 l 1
 432 576 l 1
 432 508 l 1
 212 288 l 1
 432 68 l 5
 432 0 l 1
 362 0 l 1
 144 220 l 1
 144 0 l 1
 48 0 l 1
EndSplineSet
Validated: 1
EndChar

StartChar: C
Encoding: 67 67 20
Width: 480
Flags: W
HStem: 0 96<144 432> 480 96<144 432>
VStem: 48 96<96 480>
LayerCount: 2
Fore
SplineSet
432 96 m 1
 432 0 l 1
 144 0 l 1
 96 0 48 48 48 96 c 1
 48 480 l 1
 48 528 96 576 144 576 c 1
 432 576 l 1
 432 480 l 1
 144 480 l 1
 144 96 l 1
 432 96 l 1
EndSplineSet
Validated: 1
EndChar

StartChar: J
Encoding: 74 74 21
Width: 480
Flags: W
HStem: 0 96<144 336> 556 20G<336 432>
VStem: 48 96<96 192> 336 96<96 576>
LayerCount: 2
Fore
SplineSet
336 576 m 1
 432 576 l 1
 432 96 l 1
 432 48 384 0 336 0 c 1
 144 0 l 1
 96 0 48 48 48 96 c 1
 48 192 l 1
 144 192 l 1
 144 96 l 1
 336 96 l 1
 336 576 l 1
EndSplineSet
Validated: 1
EndChar

StartChar: U
Encoding: 85 85 22
Width: 480
Flags: W
HStem: 0 96<144 336> 556 20G<48 144 336 432>
VStem: 48 96<96 576> 336 96<96 576>
LayerCount: 2
Fore
SplineSet
336 576 m 1
 432 576 l 1
 432 96 l 1
 432 48 384 0 336 0 c 1
 144 0 l 1
 96 0 48 48 48 96 c 1
 48 576 l 1
 144 576 l 1
 144 96 l 1
 336 96 l 1
 336 576 l 1
EndSplineSet
Validated: 1
EndChar

StartChar: W
Encoding: 87 87 23
Width: 480
Flags: W
HStem: 0 21G<48 164 316 432> 556 20G<48 144 336 432>
VStem: 48 96<96 576> 336 96<96 576>
LayerCount: 2
Fore
SplineSet
48 576 m 1
 144 576 l 1
 144 96 l 1
 240 192 l 1
 336 96 l 1
 336 576 l 1
 432 576 l 1
 432 0 l 1
 336 0 l 1
 240 96 l 1
 144 0 l 1
 48 0 l 1
 48 576 l 1
EndSplineSet
Validated: 1
EndChar

StartChar: S
Encoding: 83 83 24
Width: 480
Flags: W
HStem: 0 96<48 336> 288 96<144 336> 480 96<144 432>
VStem: 48 96<384 480> 336 96<96 288>
LayerCount: 2
Fore
SplineSet
336 288 m 1
 144 288 l 1
 96 288 48 336 48 384 c 1
 48 480 l 1
 48 528 96 576 144 576 c 1
 432 576 l 1
 432 480 l 1
 144 480 l 1
 144 384 l 1
 336 384 l 1
 384 384 432 336 432 288 c 1
 432 96 l 1
 432 48 384 0 336 0 c 1
 48 0 l 1
 48 96 l 1
 336 96 l 1
 336 288 l 1
EndSplineSet
Validated: 1
EndChar

StartChar: G
Encoding: 71 71 25
Width: 480
Flags: HW
HStem: 0 96<144 336> 480 96<144 432>
VStem: 48 96<96 480>
LayerCount: 2
Fore
SplineSet
336 96 m 1
 336 192 l 1
 240 192 l 1
 240 288 l 1
 432 288 l 1
 432 0 l 1
 144 0 l 1
 96 0 48 48 48 96 c 1
 48 480 l 1
 48 528 96 576 144 576 c 1
 432 576 l 1
 432 480 l 1
 144 480 l 1
 144 96 l 1
 336 96 l 1
EndSplineSet
Validated: 1
EndChar

StartChar: D
Encoding: 68 68 26
Width: 480
VWidth: 1023
Flags: W
HStem: 0 96<144 336> 480 96<144 336>
VStem: 48 96<96 480> 336 96<96 480>
LayerCount: 2
Fore
SplineSet
144 96 m 1
 336 96 l 1
 336 480 l 1
 144 480 l 1
 144 96 l 1
48 576 m 1
 336 576 l 1
 383 576 432 527 432 480 c 1
 432 96 l 1
 432 49 383 0 336 0 c 1
 48 0 l 1
 48 576 l 1
EndSplineSet
Validated: 1
EndChar

StartChar: A
Encoding: 65 65 27
Width: 480
Flags: W
HStem: 0 21G<48 144 336 432> 288 96<144 336> 480 96<144 336>
VStem: 48 96<0 288 384 480> 336 96<0 288 384 480>
LayerCount: 2
Fore
SplineSet
144 384 m 9
 144 384 144 384 336 384 c 1
 336 480 l 1
 144 480 l 1
 144 384 l 9
48 480 m 1
 48 528 96 576 144 576 c 1
 336 576 l 1
 384 576 432 528 432 480 c 1
 432 0 l 1
 336 0 l 1
 336 288 l 1
 144 288 l 1
 144 0 l 1
 48 0 l 1
 48 480 l 1
EndSplineSet
Validated: 1
EndChar

StartChar: five
Encoding: 53 53 28
Width: 480
Flags: W
HStem: 0 96<48 336> 288 96<144 336> 480 96<144 432>
VStem: 48 96<384 480> 336 96<96 288>
LayerCount: 2
Fore
SplineSet
432 576 m 1
 432 480 l 1
 144 480 l 1
 144 384 l 1
 336 384 l 1
 384 384 432 336 432 288 c 1
 432 96 l 1
 432 48 384 0 336 0 c 1
 48 0 l 1
 48 96 l 1
 336 96 l 1
 336 288 l 1
 48 288 l 1
 48 576 l 1
 432 576 l 1
EndSplineSet
Validated: 1
EndChar

StartChar: question
Encoding: 63 63 29
Width: 480
VWidth: 1023
Flags: W
HStem: 0 96<192 288> 288 96<288 336> 480 96<144 336>
VStem: 48 96<384 480> 192 96<0 96 192 288> 336 96<384 480>
CounterMasks: 1 1c
LayerCount: 2
Fore
SplineSet
288 96 m 1
 288 0 l 1
 192 0 l 1
 192 96 l 1
 288 96 l 1
288 288 m 1
 288 192 l 1
 192 192 l 1
 192 288 l 1
 192 336 240 384 288 384 c 1
 336 384 l 1
 336 480 l 1
 144 480 l 1
 144 384 l 1
 48 384 l 1
 48 480 l 1
 48 528 96 576 144 576 c 1
 336 576 l 1
 384 576 432 528 432 480 c 1
 432 384 l 1
 432 336 384 288 336 288 c 1
 288 288 l 1
EndSplineSet
Validated: 1
EndChar

StartChar: P
Encoding: 80 80 30
Width: 480
VWidth: 1023
Flags: W
HStem: 0 21G<48 144> 288 96<144 336> 480 96<144 336>
VStem: 48 96<0 288 384 480> 336 96<384 480>
LayerCount: 2
Fore
SplineSet
144 384 m 1
 336 384 l 1
 336 480 l 1
 144 480 l 1
 144 384 l 1
144 288 m 1
 144 0 l 1
 48 0 l 1
 48 576 l 1
 336 576 l 1
 383 576 432 527 432 480 c 1
 432 384 l 1
 432 337 383 288 336 288 c 1
 144 288 l 1
EndSplineSet
Validated: 1
EndChar

StartChar: bracketleft
Encoding: 91 91 31
Width: 480
Flags: W
HStem: 0 96<240 336> 480 96<240 336>
VStem: 144 192<0 96 480 576> 144 96<96 480>
LayerCount: 2
Fore
SplineSet
336 576 m 1xe0
 336 480 l 1xe0
 240 480 l 1
 240 96 l 1xd0
 336 96 l 1
 336 0 l 1
 144 0 l 1
 144 576 l 1
 336 576 l 1xe0
EndSplineSet
Validated: 1
EndChar

StartChar: bracketright
Encoding: 93 93 32
Width: 480
Flags: W
HStem: 0 96<144 240> 480 96<144 240>
VStem: 144 192<0 96 480 576> 240 96<96 480>
LayerCount: 2
Fore
SplineSet
144 576 m 1xe0
 336 576 l 1
 336 0 l 1
 144 0 l 1
 144 96 l 1xe0
 240 96 l 1
 240 480 l 1xd0
 144 480 l 1
 144 576 l 1xe0
EndSplineSet
Validated: 1
EndChar

StartChar: parenleft
Encoding: 40 40 33
Width: 480
Flags: W
HStem: 0 96<240 336> 480 96<240 336>
LayerCount: 2
Fore
SplineSet
336 96 m 1
 336 0 l 1
 240 0 l 1
 192 0 144 48 144 96 c 1
 144 480 l 1
 144 528 192 576 240 576 c 1
 336 576 l 1
 336 480 l 1
 240 480 l 1
 240 96 l 1
 336 96 l 1
EndSplineSet
Validated: 1
EndChar

StartChar: parenright
Encoding: 41 41 34
Width: 480
Flags: W
HStem: 0 96<144 240> 480 96<144 240>
LayerCount: 2
Fore
SplineSet
144 96 m 1
 240 96 l 1
 240 480 l 1
 144 480 l 1
 144 576 l 1
 240 576 l 1
 288 576 336 528 336 480 c 1
 336 96 l 1
 336 48 288 0 240 0 c 1
 144 0 l 1
 144 96 l 1
EndSplineSet
Validated: 1
EndChar

StartChar: underscore
Encoding: 95 95 35
Width: 480
Flags: W
HStem: 0 96<48 432>
LayerCount: 2
Fore
SplineSet
48 96 m 1
 432 96 l 1
 432 0 l 1
 48 0 l 1
 48 96 l 1
EndSplineSet
Validated: 1
EndChar

StartChar: two
Encoding: 50 50 36
Width: 480
Flags: W
HStem: 0 96<144 432> 192 96<144 336> 480 96<48 336>
VStem: 48 96<96 192> 336 96<288 480>
LayerCount: 2
Fore
SplineSet
432 0 m 1
 48 0 l 1
 48 192 l 1
 48 240 96 288 144 288 c 1
 336 288 l 1
 336 480 l 1
 48 480 l 1
 48 576 l 1
 336 576 l 1
 384 576 432 528 432 480 c 1
 432 288 l 1
 432 240 384 192 336 192 c 1
 144 192 l 1
 144 96 l 1
 432 96 l 1
 432 0 l 1
EndSplineSet
Validated: 1
EndChar

StartChar: slash
Encoding: 47 47 37
Width: 480
Flags: W
HStem: 0 21G<48 156> 556 20G<324 432>
LayerCount: 2
Fore
SplineSet
432 480 m 1
 144 0 l 1
 48 0 l 1
 48 96 l 1
 336 576 l 1
 432 576 l 1
 432 480 l 1
EndSplineSet
Validated: 1
EndChar

StartChar: backslash
Encoding: 92 92 38
Width: 480
Flags: W
HStem: 0 21G<324 432> 556 20G<48 156>
LayerCount: 2
Fore
SplineSet
432 96 m 1
 432 0 l 1
 336 0 l 1
 48 480 l 1
 48 576 l 1
 144 576 l 1
 432 96 l 1
EndSplineSet
Validated: 1
EndChar

StartChar: three
Encoding: 51 51 39
Width: 480
Flags: W
HStem: 0 96<48 336> 288 96<144 336> 480 96<48 336>
VStem: 336 96<96 288 384 480>
LayerCount: 2
Fore
SplineSet
48 0 m 1
 48 96 l 1
 336 96 l 1
 336 288 l 1
 144 288 l 1
 144 384 l 1
 336 384 l 1
 336 480 l 1
 48 480 l 1
 48 576 l 1
 336 576 l 1
 384 576 432 528 432 480 c 1
 432 382 l 1
 432 360 408 336 384 336 c 1
 408 336 432 312 432 288 c 1
 432 96 l 1
 432 48 384 0 336 0 c 1
 48 0 l 1
EndSplineSet
Validated: 1
EndChar

StartChar: R
Encoding: 82 82 40
Width: 480
Flags: W
HStem: 0 21G<48 144 336 432> 288 96<144 336> 480 96<144 336>
VStem: 48 96<0 288 384 480> 336 96<0 288 384 480>
LayerCount: 2
Fore
SplineSet
144 0 m 1
 48 0 l 1
 48 576 l 1
 336 576 l 1
 384 576 432 528 432 480 c 1
 432 384 l 1
 432 362 408 336 384 336 c 1
 408 336 432 312 432 288 c 1
 432 0 l 1
 336 0 l 1
 336 288 l 1
 144 288 l 1
 144 0 l 1
144 480 m 1
 144 384 l 1
 336 384 l 1
 336 480 l 1
 144 480 l 1
EndSplineSet
Validated: 1
EndChar

StartChar: B
Encoding: 66 66 41
Width: 480
Flags: W
HStem: 0 96<144 336> 288 96<144 336> 480 96<144 336>
VStem: 48 96<96 288 384 480> 336 96<96 288 384 480>
LayerCount: 2
Fore
SplineSet
336 96 m 1
 336 288 l 1
 144 288 l 1
 144 96 l 1
 336 96 l 1
336 0 m 1
 48 0 l 1
 48 576 l 1
 336 576 l 1
 384 576 432 528 432 480 c 1
 432 384 l 1
 432 362 408 336 384 336 c 1
 408 336 432 312 432 288 c 1
 432 96 l 1
 432 48 384 0 336 0 c 1
144 480 m 1
 144 384 l 1
 336 384 l 1
 336 480 l 1
 144 480 l 1
EndSplineSet
Validated: 1
EndChar

StartChar: six
Encoding: 54 54 42
Width: 480
VWidth: 1023
Flags: W
HStem: 0 96<144 336> 288 96<144 336> 480 96<144 432>
VStem: 48 96<96 288 384 480> 336 96<96 288>
LayerCount: 2
Fore
SplineSet
144 96 m 1
 336 96 l 1
 336 288 l 1
 144 288 l 1
 144 96 l 1
144 384 m 1
 336 384 l 1
 383 384 432 335 432 288 c 1
 432 96 l 1
 432 49 383 0 336 0 c 1
 144 0 l 1
 96 0 48 48 48 96 c 1
 48 480 l 1
 48 528 96 576 144 576 c 1
 432 576 l 1
 432 480 l 1
 144 480 l 1
 144 384 l 1
EndSplineSet
Validated: 1
EndChar

StartChar: eight
Encoding: 56 56 43
Width: 480
Flags: W
HStem: 0 96<144 336> 288 96<144 336> 480 96<144 336>
VStem: 48 96<96 288 384 480> 336 96<96 288 384 480>
LayerCount: 2
Fore
SplineSet
336 96 m 1
 336 288 l 1
 144 288 l 1
 144 96 l 1
 336 96 l 1
336 0 m 1
 144 0 l 1
 96 0 48 48 48 96 c 1
 48 288 l 1
 48 312 72 336 96 336 c 1
 72 336 48 360 48 384 c 1
 48 480 l 1
 48 528 96 576 144 576 c 1
 336 576 l 1
 384 576 432 528 432 480 c 1
 432 384 l 1
 432 362 408 336 384 336 c 1
 408 336 432 312 432 288 c 1
 432 96 l 1
 432 48 384 0 336 0 c 1
144 480 m 1
 144 384 l 1
 336 384 l 1
 336 480 l 1
 144 480 l 1
EndSplineSet
Validated: 1
EndChar

StartChar: one
Encoding: 49 49 44
Width: 288
Flags: HW
LayerCount: 2
Fore
SplineSet
48 576 m 0
 240 576 l 0
 240 0 l 0
 144 0 l 0
 144 480 l 0
 48 480 l 0
 48 576 l 0
EndSplineSet
Validated: 1
EndChar

StartChar: nine
Encoding: 57 57 45
Width: 480
VWidth: 1023
Flags: W
HStem: 0 96<48 336> 288 96<144 336> 480 96<144 336>
VStem: 48 96<384 480> 336 96<96 288 384 480>
LayerCount: 2
Fore
SplineSet
336 480 m 1
 144 480 l 1
 144 384 l 1
 336 384 l 1
 336 480 l 1
336 288 m 1
 144 288 l 1
 97 288 48 337 48 384 c 1
 48 480 l 1
 48 527 97 576 144 576 c 1
 336 576 l 1
 384 576 432 528 432 480 c 1
 432 96 l 1
 432 48 384 0 336 0 c 1
 48 0 l 1
 48 96 l 1
 336 96 l 1
 336 288 l 1
EndSplineSet
Validated: 1
EndChar

StartChar: equal
Encoding: 61 61 46
Width: 480
Flags: W
HStem: 144 96<48 432> 336 96<48 432>
LayerCount: 2
Fore
SplineSet
48 336 m 1
 48 432 l 1
 432 432 l 1
 432 336 l 1
 48 336 l 1
48 240 m 1
 432 240 l 1
 432 144 l 1
 48 144 l 1
 48 240 l 1
EndSplineSet
Validated: 1
EndChar

StartChar: plus
Encoding: 43 43 47
Width: 480
Flags: W
HStem: 240 96<48 192 288 432>
VStem: 192 96<96 240 336 480>
LayerCount: 2
Fore
SplineSet
192 240 m 1
 48 240 l 1
 48 336 l 1
 192 336 l 1
 192 480 l 1
 288 480 l 1
 288 336 l 1
 432 336 l 1
 432 240 l 1
 288 240 l 1
 288 96 l 1
 192 96 l 1
 192 240 l 1
EndSplineSet
Validated: 1
EndChar

StartChar: hyphen
Encoding: 45 45 48
Width: 480
Flags: W
HStem: 240 96<48 432>
LayerCount: 2
Fore
SplineSet
432 240 m 1
 48 240 l 1
 48 336 l 1
 432 336 l 1
 432 240 l 1
EndSplineSet
Validated: 1
EndChar

StartChar: bar
Encoding: 124 124 49
Width: 480
Flags: HW
HStem: 0 21G<192 288> 0 21G<192 288> 556 20G<192 288>
VStem: 192 96<0 576>
LayerCount: 2
Fore
SplineSet
288 -96 m 1xb0
 192 -96 l 1
 192 576 l 1
 288 576 l 1
 288 -96 l 1xb0
EndSplineSet
Validated: 1
EndChar

StartChar: braceleft
Encoding: 123 123 50
Width: 480
Flags: W
HStem: 0 96<240 336> 480 96<240 336>
VStem: 144 96<96 240 336 480>
LayerCount: 2
Fore
SplineSet
336 96 m 1
 336 0 l 1
 240 0 l 1
 192 0 144 48 144 96 c 1
 144 240 l 1
 96 288 l 1
 144 336 l 1
 144 480 l 1
 144 528 192 576 240 576 c 1
 336 576 l 1
 336 480 l 1
 240 480 l 1
 240 336 l 1
 192 288 l 1
 240 240 l 1
 240 96 l 1
 336 96 l 1
EndSplineSet
Validated: 1
EndChar

StartChar: braceright
Encoding: 125 125 51
Width: 480
Flags: W
HStem: 0 96<144 240> 480 96<144 240>
VStem: 240 96<96 240 336 480>
LayerCount: 2
Fore
SplineSet
144 96 m 1
 240 96 l 1
 240 240 l 1
 288 288 l 1
 240 336 l 1
 240 480 l 1
 144 480 l 1
 144 576 l 1
 240 576 l 1
 288 576 336 528 336 480 c 1
 336 336 l 1
 384 288 l 1
 336 240 l 1
 336 96 l 1
 336 48 288 0 240 0 c 1
 144 0 l 1
 144 96 l 1
EndSplineSet
Validated: 1
EndChar

StartChar: period
Encoding: 46 46 52
Width: 192
Flags: HW
HStem: 0 96<192 288>
VStem: 192 96<0 96>
LayerCount: 2
Fore
SplineSet
48 96 m 1
 144 96 l 1
 144 0 l 1
 48 0 l 1
 48 96 l 1
EndSplineSet
Validated: 1
EndChar

StartChar: comma
Encoding: 44 44 53
Width: 192
Flags: HW
HStem: -96 192<48 144>
VStem: 48 96<-96 96>
LayerCount: 2
Fore
SplineSet
48 96 m 1
 144 96 l 1
 144 -96 l 1
 48 -96 l 1
 48 96 l 1
EndSplineSet
Validated: 1
EndChar

StartChar: colon
Encoding: 58 58 54
Width: 192
Flags: HW
HStem: 0 96<192 288> 288 96<192 288>
VStem: 192 96<0 96 288 384>
LayerCount: 2
Fore
SplineSet
48 384 m 1
 144 384 l 1
 144 288 l 1
 48 288 l 1
 48 384 l 1
48 96 m 1
 144 96 l 1
 144 0 l 1
 48 0 l 1
 48 96 l 1
EndSplineSet
Validated: 1
EndChar

StartChar: semicolon
Encoding: 59 59 55
Width: 192
Flags: HW
HStem: 288 96<192 288>
VStem: 192 96<-96 96 288 384>
LayerCount: 2
Fore
SplineSet
48 384 m 1
 144 384 l 1
 144 288 l 1
 48 288 l 1
 48 384 l 1
48 96 m 1
 144 96 l 1
 144 -96 l 1
 48 -96 l 1
 48 96 l 1
EndSplineSet
Validated: 1
EndChar

StartChar: four
Encoding: 52 52 56
Width: 480
Flags: W
HStem: 0 21G<336 432> 0 21G<336 432> 288 96<144 336> 556 20G<48 144 336 432>
VStem: 48 96<384 576> 336 96<0 288 384 576>
LayerCount: 2
Fore
SplineSet
48 576 m 1xbc
 144 576 l 1
 144 384 l 1
 336 384 l 1
 336 576 l 1
 432 576 l 1
 432 0 l 1
 336 0 l 1
 336 288 l 1
 144 288 l 1
 96 288 48 336 48 384 c 1
 48 576 l 1xbc
EndSplineSet
Validated: 1
EndChar

StartChar: percent
Encoding: 37 37 57
Width: 480
Flags: W
HStem: 0 96<336 432> 480 96<48 144>
VStem: 48 96<480 576> 336 96<0 96>
LayerCount: 2
Fore
SplineSet
336 96 m 1
 432 96 l 1
 432 0 l 1
 336 0 l 1
 336 96 l 1
48 576 m 1
 144 576 l 1
 144 480 l 1
 48 480 l 1
 48 576 l 1
432 480 m 1
 144 0 l 1
 48 0 l 1
 48 96 l 1
 336 576 l 1
 432 576 l 1
 432 480 l 1
EndSplineSet
Validated: 1
EndChar

StartChar: asciicircum
Encoding: 94 94 58
Width: 480
Flags: W
HStem: 316 260
LayerCount: 2
Fore
SplineSet
240 576 m 1
 432 384 l 1
 432 316 l 1
 364 316 l 1
 240 440 l 1
 116 316 l 1
 48 316 l 1
 48 384 l 1
 240 576 l 1
EndSplineSet
Validated: 1
EndChar

StartChar: less
Encoding: 60 60 59
Width: 480
Flags: W
VStem: 104 260
LayerCount: 2
Fore
SplineSet
104 288 m 1
 296 480 l 1
 364 480 l 1
 364 412 l 1
 240 288 l 1
 364 164 l 1
 364 96 l 1
 296 96 l 1
 104 288 l 1
EndSplineSet
Validated: 1
EndChar

StartChar: greater
Encoding: 62 62 60
Width: 480
Flags: W
VStem: 116 260
LayerCount: 2
Fore
SplineSet
376 288 m 1
 184 96 l 1
 116 96 l 1
 116 164 l 1
 240 288 l 1
 116 412 l 1
 116 480 l 1
 184 480 l 1
 376 288 l 1
EndSplineSet
Validated: 1
EndChar

StartChar: quotesingle
Encoding: 39 39 61
Width: 192
Flags: HWO
HStem: 384 192<48 144>
VStem: 48 96<384 576>
LayerCount: 2
Fore
SplineSet
48 576 m 1
 144 576 l 1
 144 384 l 1
 48 384 l 1
 48 576 l 1
EndSplineSet
Validated: 1
EndChar

StartChar: asterisk
Encoding: 42 42 62
Width: 480
Flags: W
HStem: 288 96<48 172 308 432>
VStem: 192 96<384 528>
LayerCount: 2
Fore
SplineSet
116 96 m 1
 48 96 l 1
 48 164 l 1
 172 288 l 1
 48 288 l 1
 48 384 l 1
 192 384 l 1
 192 528 l 1
 288 528 l 1
 288 384 l 1
 432 384 l 1
 432 288 l 1
 308 288 l 1
 432 164 l 1
 432 96 l 1
 368 96 l 1
 240 220 l 1
 116 96 l 1
EndSplineSet
Validated: 1
EndChar

StartChar: o
Encoding: 111 111 64
Width: 480
VWidth: 1023
Flags: HW
LayerCount: 2
Fore
SplineSet
144 96 m 1
 336 96 l 1
 336 288 l 5
 144 288 l 5
 144 96 l 1
144 0 m 1
 97 0 48 49 48 96 c 1
 48 288 l 5
 48 343 97 384 144 384 c 5
 336 384 l 5
 383 384 432 335 432 288 c 5
 432 96 l 1
 432 49 383 0 336 0 c 1
 144 0 l 1
EndSplineSet
Validated: 1
EndChar

StartChar: c
Encoding: 99 99 65
Width: 480
Flags: HW
HStem: 0 96<144 432> 480 96<144 432>
VStem: 48 96<96 480>
LayerCount: 2
Fore
SplineSet
432 96 m 1
 432 0 l 1
 144 0 l 1
 96 0 48 48 48 96 c 1
 48 288 l 5
 48 336 96 384 144 384 c 5
 432 384 l 5
 432 288 l 5
 144 288 l 5
 144 96 l 1
 432 96 l 1
EndSplineSet
Validated: 1
EndChar

StartChar: p
Encoding: 112 112 66
Width: 480
VWidth: 1023
Flags: HW
HStem: 0 21G<48 144> 288 96<144 336> 480 96<144 336>
VStem: 48 96<0 288 384 480> 336 96<384 480>
LayerCount: 2
Fore
SplineSet
144 96 m 1
 336 96 l 1
 336 287 l 1
 144 287 l 1
 144 96 l 1
144 0 m 1
 144 -192 l 1
 48 -192 l 1
 48 383 l 1
 336 383 l 1
 383 383 432 334 432 287 c 1
 432 96 l 1
 432 49 383 0 336 0 c 1
 144 0 l 1
EndSplineSet
Validated: 1
EndChar

StartChar: q
Encoding: 113 113 67
Width: 480
VWidth: 1023
Flags: W
HStem: -192 21G<336 432> 0 96<144 336> 288 96<144 336>
VStem: 48 96<96 288> 336 96<-192 0 96 288>
LayerCount: 2
Fore
SplineSet
144 288 m 1
 144 96 l 1
 336 96 l 1
 336 288 l 1
 144 288 l 1
336 0 m 1
 144 0 l 1
 97 0 48 49 48 96 c 1
 48 288 l 1
 48 335 97 384 144 384 c 1
 432 384 l 1
 432 -192 l 1
 336 -192 l 1
 336 0 l 1
EndSplineSet
Validated: 1
EndChar

StartChar: b
Encoding: 98 98 68
Width: 480
VWidth: 1023
Flags: W
HStem: -0 96<144 336> 288 96<144 336> 556 20G<48 144>
VStem: 48 96<96 288 384 576> 336 96<96 288>
LayerCount: 2
Fore
SplineSet
336 96 m 1
 336 288 l 1
 144 288 l 1
 144 96 l 1
 336 96 l 1
144 384 m 1
 336 384 l 1
 383 384 432 335 432 288 c 1
 432 96 l 1
 432 49 383 -0 336 -0 c 1
 48 -0 l 1
 48 576 l 1
 144 576 l 1
 144 384 l 1
EndSplineSet
Validated: 1
EndChar

StartChar: d
Encoding: 100 100 69
Width: 480
VWidth: 1023
Flags: HW
HStem: 0 21G<48 144> 288 96<144 336> 480 96<144 336>
VStem: 48 96<0 288 384 480> 336 96<384 480>
LayerCount: 2
Fore
SplineSet
336 288 m 1
 144 288 l 1
 144 97 l 1
 336 97 l 1
 336 288 l 1
336 384 m 1
 336 576 l 1
 432 576 l 1
 432 1 l 1
 144 1 l 1
 97 1 48 50 48 97 c 1
 48 288 l 1
 48 335 97 384 144 384 c 1
 336 384 l 1
EndSplineSet
Validated: 1
EndChar

StartChar: u
Encoding: 117 117 70
Width: 480
Flags: HW
HStem: 0 96<144 336> 556 20G<48 144 336 432>
VStem: 48 96<96 576> 336 96<96 576>
LayerCount: 2
Fore
SplineSet
336 384 m 5
 432 384 l 5
 432 96 l 1
 432 48 384 0 336 0 c 1
 144 0 l 1
 96 0 48 48 48 96 c 1
 48 384 l 5
 144 384 l 5
 144 96 l 1
 336 96 l 1
 336 384 l 5
EndSplineSet
Validated: 1
EndChar

StartChar: v
Encoding: 118 118 71
Width: 480
VWidth: 1023
Flags: HW
HStem: 0 21G<160 320> 557 19G<47 147 333 431>
LayerCount: 2
Fore
SplineSet
432 384 m 1
 318 0 l 1
 162 0 l 1
 48 384 l 1
 144 384 l 1
 240 58 l 1
 336 384 l 1
 432 384 l 1
EndSplineSet
Validated: 1
EndChar

StartChar: x
Encoding: 120 120 72
Width: 480
Flags: HW
HStem: 0 21G<48 154 326 432> 556 20G<48 154 326 432>
LayerCount: 2
Fore
SplineSet
240 256 m 1
 336 384 l 1
 432 384 l 1
 288 192 l 1
 432 0 l 1
 336 0 l 1
 240 128 l 1
 144 0 l 1
 48 0 l 1
 192 192 l 1
 48 384 l 1
 144 384 l 1
 240 256 l 1
EndSplineSet
Validated: 1
EndChar

StartChar: z
Encoding: 122 122 73
Width: 480
VWidth: 1023
Flags: HW
LayerCount: 2
Fore
SplineSet
431 0 m 1
 47 0 l 1
 47 96 l 1
 338 288 l 1
 48 288 l 1
 48 384 l 1
 432 384 l 1
 432 288 l 1
 145 96 l 1
 431 96 l 1
 431 0 l 1
EndSplineSet
Validated: 1
EndChar

StartChar: n
Encoding: 110 110 74
Width: 480
Flags: HW
HStem: 288 96<144 336>
VStem: 336 96<0 288>
LayerCount: 2
Fore
SplineSet
48 0 m 1
 48 384 l 1
 336 384 l 1
 384 384 432 336 432 288 c 1
 432 0 l 1
 336 0 l 1
 336 288 l 1
 144 288 l 1
 144 0 l 1
 48 0 l 1
EndSplineSet
Validated: 1
EndChar

StartChar: k
Encoding: 107 107 75
Width: 480
Flags: HW
HStem: 0 21G<48 144 342.182 432> 556 20G<48 144 344 432>
VStem: 48 96<0 220 356 576>
LayerCount: 2
Fore
SplineSet
48 0 m 1
 48 576 l 1
 144 576 l 1
 144 260 l 1
 364 384 l 1
 432 384 l 1
 432 316 l 1
 212 192 l 1
 432 68 l 1
 432 0 l 1
 362 0 l 1
 144 124 l 1
 144 0 l 1
 48 0 l 1
EndSplineSet
Validated: 1
EndChar

StartChar: s
Encoding: 115 115 76
Width: 480
Flags: HW
HStem: 0 96<48 336> 288 96<144 336> 480 96<144 432>
VStem: 48 96<384 480> 336 96<96 288>
LayerCount: 2
Fore
SplineSet
336 144 m 1
 144 144 l 1
 96 144 48 192 48 240 c 1
 48 288 l 1
 48 336 96 384 144 384 c 1
 432 384 l 1
 432 288 l 1
 144 288 l 1
 144 240 l 1
 336 240 l 1
 384 240 432 192 432 144 c 1
 432 96 l 1
 432 48 384 0 336 0 c 1
 48 0 l 1
 48 96 l 1
 336 96 l 1
 336 144 l 1
EndSplineSet
Validated: 1
EndChar

StartChar: f
Encoding: 102 102 77
Width: 480
Flags: HW
HStem: 0 21G<48 144> 288 96<144 336> 480 96<144 432>
VStem: 48 96<0 288 384 480>
LayerCount: 2
Fore
SplineSet
192 0 m 1
 192 288 l 1
 48 288 l 1
 48 384 l 1
 192 384 l 1
 192 480 l 1
 192 528 240 576 288 576 c 1
 432 576 l 1
 432 480 l 1
 288 480 l 1
 288 384 l 1
 432 384 l 1
 432 288 l 1
 288 288 l 1
 288 0 l 1
 192 0 l 1
EndSplineSet
Validated: 1
EndChar

StartChar: h
Encoding: 104 104 78
Width: 480
VWidth: 1023
Flags: HW
LayerCount: 2
Fore
SplineSet
433 288 m 1
 432 0 l 1
 336 0 l 1
 336 288 l 1
 144 288 l 1
 144 0 l 1
 48 0 l 1
 48 576 l 1
 144 576 l 1
 144 384 l 1
 336 384 l 1
 384 384 432 336 433 288 c 1
EndSplineSet
Validated: 1
EndChar

StartChar: i
Encoding: 105 105 79
Width: 192
Flags: HW
HStem: 288 96<48 144>
VStem: 48 96<-96 96 288 384>
LayerCount: 2
Fore
SplineSet
48 576 m 1
 144 576 l 1
 144 480 l 1
 48 480 l 1
 48 576 l 1
47 384 m 1
 143 384 l 1
 146 0 l 1
 50 0 l 1
 47 384 l 1
EndSplineSet
Validated: 1
EndChar

StartChar: j
Encoding: 106 106 80
Width: 384
Flags: HW
HStem: 288 96<240 336>
VStem: 240 96<-96 96 288 384>
LayerCount: 2
Fore
SplineSet
240 576 m 1
 336 576 l 1
 336 480 l 1
 240 480 l 1
 240 576 l 1
240 384 m 1
 336 384 l 1
 336 -96 l 1
 336 -144 288 -192 240 -192 c 1
 144 -192 l 1
 96 -192 48 -144 48 -96 c 1
 48 0 l 1
 144 0 l 1
 144 -96 l 1
 240 -96 l 1
 240 384 l 1
EndSplineSet
Validated: 1
EndChar

StartChar: g
Encoding: 103 103 81
Width: 480
VWidth: 1023
Flags: W
HStem: -192 96<48 336> 0 96<144 336> 288 96<144 336>
VStem: 48 96<96 288> 336 96<-96 0 96 288>
LayerCount: 2
Fore
SplineSet
336 96 m 1
 336 288 l 1
 144 288 l 1
 144 96 l 1
 336 96 l 1
336 0 m 1
 144 0 l 1
 97 0 48 49 48 96 c 1
 48 288 l 1
 48 335 97 384 144 384 c 1
 432 384 l 1
 432 -96 l 1
 432 -144 384 -192 336 -192 c 1
 48 -192 l 1
 48 -96 l 1
 336 -96 l 1
 336 0 l 1
EndSplineSet
Validated: 1
EndChar

StartChar: t
Encoding: 116 116 82
Width: 480
Flags: W
HStem: 0 96<288 432> 288 96<48 192 288 432> 556 20G<192 288>
VStem: 192 96<96 288 384 576>
LayerCount: 2
Fore
SplineSet
192 576 m 1
 288 576 l 1
 288 384 l 1
 432 384 l 1
 432 288 l 1
 288 288 l 1
 288 96 l 1
 432 96 l 1
 432 0 l 1
 288 0 l 1
 240 0 192 48 192 96 c 1
 192 288 l 1
 48 288 l 1
 48 384 l 1
 192 384 l 1
 192 576 l 1
EndSplineSet
Validated: 1
EndChar

StartChar: w
Encoding: 119 119 83
Width: 480
Flags: HW
HStem: 0 21G<48 164 316 432> 556 20G<48 144 336 432>
VStem: 48 96<96 576> 336 96<96 576>
LayerCount: 2
Fore
SplineSet
48 384 m 1
 144 384 l 1
 144 96 l 1
 240 192 l 1
 336 96 l 1
 336 384 l 1
 432 384 l 1
 432 0 l 1
 336 0 l 1
 240 96 l 1
 144 0 l 1
 48 0 l 1
 48 384 l 1
EndSplineSet
Validated: 1
EndChar

StartChar: e
Encoding: 101 101 84
Width: 480
VWidth: 1023
Flags: W
HStem: 0 96<144 432> 143 96<144 336> 288 96<144 336>
VStem: 48 96<96 143 239 288> 336 96<239 288>
LayerCount: 2
Fore
SplineSet
144 239 m 1
 336 239 l 1
 336 288 l 1
 144 288 l 1
 144 239 l 1
144 143 m 1
 144 96 l 1
 432 96 l 1
 432 0 l 1
 144 0 l 1
 96 0 48 48 48 96 c 1
 48 288 l 1
 48 336 96 384 144 384 c 1
 336 384 l 1
 383 384 432 335 432 288 c 1
 432 239 l 1
 432 192 383 143 336 143 c 1
 144 143 l 1
EndSplineSet
Validated: 1
EndChar

StartChar: m
Encoding: 109 109 85
Width: 480
Flags: HW
HStem: 288 96<288 336>
VStem: 336 96<0 288>
LayerCount: 2
Fore
SplineSet
48 0 m 1
 48 384 l 1
 336 384 l 1
 384 384 432 336 432 288 c 1
 432 0 l 1
 336 0 l 1
 336 288 l 1
 288 288 l 1
 288 0 l 1
 192 0 l 1
 192 288 l 1
 144 288 l 1
 144 0 l 1
 48 0 l 1
EndSplineSet
Validated: 1
EndChar

StartChar: y
Encoding: 121 121 86
Width: 480
VWidth: 1023
Flags: HW
LayerCount: 2
Fore
SplineSet
47 96 m 1
 48 384 l 1
 144 384 l 1
 144 96 l 1
 336 96 l 1
 336 384 l 1
 432 384 l 1
 432 -96 l 1
 432 -144 384 -191 336 -192 c 1
 48 -192 l 1
 48 -96 l 1
 336 -96 l 1
 336 0 l 1
 144 0 l 1
 96 0 48 48 47 96 c 1
EndSplineSet
Validated: 1
EndChar

StartChar: a
Encoding: 97 97 87
Width: 480
VWidth: 1023
Flags: HW
HStem: 0 21G<48 144> 288 96<144 336> 480 96<144 336>
VStem: 48 96<0 288 384 480> 336 96<384 480>
LayerCount: 2
Fore
SplineSet
336 144 m 1
 144 144 l 1
 144 97 l 1
 336 97 l 1
 336 144 l 1
336 240 m 1
 336 288 l 1
 48 288 l 1
 48 384 l 1
 336 384 l 1
 384 384 432 334 432 288 c 1
 432 1 l 1
 144 1 l 1
 97 1 48 50 48 97 c 1
 48 144 l 1
 48 191 97 240 144 240 c 1
 336 240 l 1
EndSplineSet
Validated: 1
EndChar

StartChar: r
Encoding: 114 114 88
Width: 480
Flags: HW
LayerCount: 2
Fore
SplineSet
384 288 m 0
 192 288 l 0
 192 0 l 0
 96 0 l 0
 96 384 l 0
 384 384 l 0
 384 288 l 0
EndSplineSet
Validated: 1
EndChar

StartChar: l
Encoding: 108 108 89
Width: 192
Flags: HW
HStem: 0 21G<48 144> 0 21G<48 144> 556 20G<48 144>
VStem: 48 96<0 576>
LayerCount: 2
Fore
SplineSet
144 0 m 1xb0
 48 0 l 1
 48 576 l 1
 144 576 l 1
 144 0 l 1xb0
EndSplineSet
Validated: 1
EndChar
